<svg width="140" height="49" viewBox="0 0 140 49" fill="none" xmlns="http://www.w3.org/2000/svg">
<rect x="1.5" y="8.5" width="137" height="39" rx="12.5" fill="#3F51B5" stroke="white" stroke-width="3"/>
<path d="M21.5508 20.5195C21.5508 19.9883 21.7305 19.5352 22.0898 19.1602C22.4492 18.7852 22.918 18.5977 23.4961 18.5977C24.0898 18.5977 24.5469 18.7539 24.8672 19.0664C25.1875 19.3789 25.4023 19.8086 25.5117 20.3555L27.5039 29.6367L30.3633 20.6133C30.6055 19.8789 30.8906 19.3594 31.2188 19.0547C31.5547 18.75 31.9961 18.5977 32.543 18.5977C33.0742 18.5977 33.5117 18.7461 33.8555 19.043C34.1992 19.3398 34.4883 19.8633 34.7227 20.6133L37.5352 29.6367L39.5742 20.3555C39.6992 19.793 39.8984 19.375 40.1719 19.1016C40.5078 18.7656 40.9805 18.5977 41.5898 18.5977C42.1836 18.5977 42.6562 18.7812 43.0078 19.1484C43.3594 19.5156 43.5352 19.9727 43.5352 20.5195C43.5352 20.793 43.4766 21.1562 43.3594 21.6094C43.25 22.0547 43.1797 22.3555 43.1484 22.5117L40.5586 33.2109C40.3477 34.0625 40.1641 34.6484 40.0078 34.9688C39.6094 35.75 38.8828 36.1406 37.8281 36.1406C36.4531 36.1406 35.5312 35.4219 35.0625 33.9844L32.5664 26.0859L30.0234 33.9844C29.7812 34.7031 29.4453 35.2422 29.0156 35.6016C28.5859 35.9609 28.0039 36.1406 27.2695 36.1406C26.4023 36.1406 25.7695 35.8945 25.3711 35.4023C25.0664 35.0195 24.7852 34.2891 24.5273 33.2109L21.9375 22.5117C21.8594 22.207 21.7734 21.8711 21.6797 21.5039C21.5938 21.1367 21.5508 20.8086 21.5508 20.5195ZM44.168 29.543C44.168 27.668 44.7812 26.0625 46.0078 24.7266C47.2422 23.3906 48.8125 22.7227 50.7188 22.7227C52.4922 22.7227 53.9648 23.3789 55.1367 24.6914C56.2383 25.9414 56.7891 27.4219 56.7891 29.1328C56.7891 29.7578 56.6445 30.1914 56.3555 30.4336C56.0664 30.6758 55.6055 30.7969 54.9727 30.7969H48.1992C48.1992 31.3125 48.3984 31.7578 48.7969 32.1328C49.3281 32.6484 50.1289 32.9062 51.1992 32.9062C51.8867 32.9062 52.6445 32.707 53.4727 32.3086C54.3086 31.9023 54.832 31.7031 55.043 31.7109C55.4883 31.7109 55.8594 31.8594 56.1562 32.1562C56.4531 32.4453 56.6016 32.8398 56.6016 33.3398C56.6016 34.2227 55.9961 34.9531 54.7852 35.5312C53.582 36.1016 52.2266 36.3867 50.7188 36.3867C48.7656 36.3867 47.1836 35.7344 45.9727 34.4297C44.7695 33.125 44.168 31.4961 44.168 29.543ZM48.1992 28.1953H53.0508C53.0508 27.6797 52.832 27.1914 52.3945 26.7305C51.9102 26.1914 51.3281 25.9219 50.6484 25.9219C50.6406 25.9219 50.6328 25.9219 50.625 25.9219C49.9531 25.9219 49.3789 26.1797 48.9023 26.6953C48.4336 27.2031 48.1992 27.7031 48.1992 28.1953ZM57.4688 34.1719V19.3008C57.4688 18.7383 57.6406 18.2695 57.9844 17.8945C58.3281 17.5195 58.7812 17.332 59.3438 17.332C59.8906 17.332 60.3398 17.5234 60.6914 17.9062C61.043 18.2891 61.2188 18.7539 61.2188 19.3008V23.7891C61.6484 23.4375 62.0391 23.1875 62.3906 23.0391C62.9062 22.8281 63.5469 22.7227 64.3125 22.7227C65.9453 22.7227 67.3164 23.3828 68.4258 24.7031C69.543 26.0234 70.1016 27.6367 70.1016 29.543C70.1016 31.4648 69.543 33.0859 68.4258 34.4062C67.3164 35.7266 65.9453 36.3867 64.3125 36.3867C63.5781 36.3867 62.9648 36.2812 62.4727 36.0703C61.9883 35.8672 61.5312 35.4922 61.1016 34.9453C60.9453 35.2812 60.7188 35.5664 60.4219 35.8008C60.1328 36.0273 59.7734 36.1406 59.3438 36.1406C58.7969 36.1406 58.3477 35.957 57.9961 35.5898C57.6445 35.2227 57.4688 34.75 57.4688 34.1719ZM61.2188 29.543C61.2188 30.4727 61.4453 31.2422 61.8984 31.8516C62.3594 32.4609 62.9883 32.7656 63.7852 32.7656C64.582 32.7656 65.207 32.457 65.6602 31.8398C66.1211 31.2227 66.3516 30.457 66.3516 29.543C66.3516 28.6289 66.1367 27.8867 65.707 27.3164C65.2305 26.6758 64.5898 26.3555 63.7852 26.3555C62.9883 26.3555 62.3594 26.6602 61.8984 27.2695C61.4453 27.8711 61.2188 28.6289 61.2188 29.543ZM76.8281 33.5508C76.8281 32.9727 76.9883 32.4805 77.3086 32.0742C77.6289 31.668 78.0781 31.4648 78.6562 31.4648C78.8828 31.4648 79.4492 31.6328 80.3555 31.9688C81.2695 32.3047 82.1016 32.4727 82.8516 32.4727C83.5391 32.4727 84.0547 32.3125 84.3984 31.9922C84.75 31.6719 84.9258 31.2891 84.9258 30.8438C84.9258 30.1719 84.4102 29.6445 83.3789 29.2617C83.1836 29.1836 82.4648 28.9414 81.2227 28.5352C79.5586 28.0039 78.457 27.375 77.918 26.6484C77.3867 25.9219 77.1211 25 77.1211 23.8828C77.1211 22.0938 77.7383 20.6992 78.9727 19.6992C80.082 18.8086 81.4961 18.3633 83.2148 18.3633C83.2305 18.3633 83.2461 18.3633 83.2617 18.3633C84.8008 18.3633 85.9922 18.6016 86.8359 19.0781C87.6875 19.5469 88.1133 20.1719 88.1133 20.9531C88.1133 21.4844 87.9531 21.9258 87.6328 22.2773C87.3125 22.6289 86.8945 22.8047 86.3789 22.8047C86.0742 22.8047 85.4531 22.6602 84.5156 22.3711C83.9844 22.2148 83.5039 22.1328 83.0742 22.125C82.543 22.125 82.1133 22.2578 81.7852 22.5234C81.457 22.7891 81.293 23.1289 81.293 23.543C81.293 24.0352 81.7344 24.4375 82.6172 24.75C83.5 25.0625 84.2773 25.332 84.9492 25.5586C86.2305 25.9727 87.1797 26.4922 87.7969 27.1172C88.6641 27.9688 89.0977 29.1367 89.0977 30.6211C89.0977 32.5273 88.4648 33.9844 87.1992 34.9922C86.0273 35.9219 84.4844 36.3867 82.5703 36.3867C81.1953 36.3867 79.9531 36.1602 78.8438 35.707C77.5 35.1602 76.8281 34.4414 76.8281 33.5508ZM89.7305 19.582C89.7305 18.957 89.9492 18.4258 90.3867 17.9883C90.8242 17.5508 91.3477 17.332 91.957 17.332C92.582 17.332 93.1094 17.5469 93.5391 17.9766C93.9766 18.4062 94.1953 18.9414 94.1953 19.582C94.1953 20.2227 93.9766 20.7617 93.5391 21.1992C93.1094 21.6289 92.582 21.8438 91.957 21.8438C91.332 21.8438 90.8047 21.6289 90.375 21.1992C89.9453 20.7617 89.7305 20.2227 89.7305 19.582ZM90.6094 35.5898C90.2656 35.2227 90.0938 34.75 90.0938 34.1719V24.9141C90.0938 24.3672 90.2656 23.9062 90.6094 23.5312C90.9531 23.1562 91.4023 22.9688 91.957 22.9688C92.5039 22.9688 92.9531 23.1523 93.3047 23.5195C93.6562 23.8867 93.832 24.3516 93.832 24.9141V34.1719C93.832 34.7344 93.6602 35.2031 93.3164 35.5781C92.9727 35.9531 92.5195 36.1406 91.957 36.1406C91.4102 36.1406 90.9609 35.957 90.6094 35.5898ZM95.1211 24.8438C95.1211 24.25 95.2891 23.8125 95.625 23.5312C95.9609 23.25 96.4492 23.1094 97.0898 23.1094H97.5234V20.6367C97.5234 20.0742 97.6953 19.6055 98.0391 19.2305C98.3828 18.8555 98.8359 18.668 99.3984 18.668C99.9453 18.668 100.391 18.8555 100.734 19.2305C101.086 19.5977 101.262 20.0664 101.262 20.6367V23.1094H102.293C102.918 23.1094 103.402 23.25 103.746 23.5312C104.09 23.8125 104.262 24.25 104.262 24.8438C104.262 25.4375 104.086 25.8789 103.734 26.168C103.383 26.4492 102.902 26.5898 102.293 26.5898H101.262V34.1719C101.262 34.7344 101.09 35.2031 100.746 35.5781C100.402 35.9531 99.9531 36.1406 99.3984 36.1406C98.8516 36.1406 98.4023 35.957 98.0508 35.5898C97.6992 35.2227 97.5234 34.75 97.5234 34.1719V26.5898H97.0898C96.4648 26.5898 95.9805 26.4531 95.6367 26.1797C95.293 25.8984 95.1211 25.4531 95.1211 24.8438ZM105.27 29.543C105.27 27.668 105.883 26.0625 107.109 24.7266C108.344 23.3906 109.914 22.7227 111.82 22.7227C113.594 22.7227 115.066 23.3789 116.238 24.6914C117.34 25.9414 117.891 27.4219 117.891 29.1328C117.891 29.7578 117.746 30.1914 117.457 30.4336C117.168 30.6758 116.707 30.7969 116.074 30.7969H109.301C109.301 31.3125 109.5 31.7578 109.898 32.1328C110.43 32.6484 111.23 32.9062 112.301 32.9062C112.988 32.9062 113.746 32.707 114.574 32.3086C115.41 31.9023 115.934 31.7031 116.145 31.7109C116.59 31.7109 116.961 31.8594 117.258 32.1562C117.555 32.4453 117.703 32.8398 117.703 33.3398C117.703 34.2227 117.098 34.9531 115.887 35.5312C114.684 36.1016 113.328 36.3867 111.82 36.3867C109.867 36.3867 108.285 35.7344 107.074 34.4297C105.871 33.125 105.27 31.4961 105.27 29.543ZM109.301 28.1953H114.152C114.152 27.6797 113.934 27.1914 113.496 26.7305C113.012 26.1914 112.43 25.9219 111.75 25.9219C111.742 25.9219 111.734 25.9219 111.727 25.9219C111.055 25.9219 110.48 26.1797 110.004 26.6953C109.535 27.2031 109.301 27.7031 109.301 28.1953Z" fill="white"/>
</svg>
